<?xml version="1.0" encoding="UTF-8" standalone="no"?><!-- Generator: Gravit.io --><svg xmlns="http://www.w3.org/2000/svg" xmlns:xlink="http://www.w3.org/1999/xlink" style="isolation:isolate" viewBox="0 0 513.641 193.89" width="513.641pt" height="193.89pt"><defs><clipPath id="_clipPath_To3eH3lToie1UobPiSxlxpDomrTXOm4b"><rect width="513.641" height="193.89"/></clipPath></defs><g clip-path="url(#_clipPath_To3eH3lToie1UobPiSxlxpDomrTXOm4b)"><g><path d="M 6.669 8.496 L 507.552 8.496 C 510.681 8.496 513.221 11.036 513.221 14.165 L 513.221 33.968 C 513.221 37.097 510.681 39.637 507.552 39.637 L 6.669 39.637 C 3.54 39.637 1 37.097 1 33.968 L 1 14.165 C 1 11.036 3.54 8.496 6.669 8.496 Z" style="stroke:none;fill:#FFFFFF;stroke-miterlimit:10;"/><path d="M 6.669 8.496 L 507.552 8.496 C 510.681 8.496 513.221 11.036 513.221 14.165 L 513.221 33.968 C 513.221 37.097 510.681 39.637 507.552 39.637 L 6.669 39.637 C 3.54 39.637 1 37.097 1 33.968 L 1 14.165 C 1 11.036 3.54 8.496 6.669 8.496 Z" style="fill:none;stroke:#747474;stroke-width:1;stroke-linecap:square;stroke-miterlimit:2;"/><path d="M 6.669 8.496 L 26.922 8.496 C 30.051 8.496 32.592 11.036 32.592 14.165 L 32.592 33.968 C 32.592 37.097 30.051 39.637 26.922 39.637 L 6.669 39.637 C 3.54 39.637 1 37.097 1 33.968 L 1 14.165 C 1 11.036 3.54 8.496 6.669 8.496 Z" style="stroke:none;fill:#E8E8E8;stroke-linecap:square;stroke-miterlimit:2;"/><path d="M 6.669 8.496 L 26.922 8.496 C 30.051 8.496 32.592 11.036 32.592 14.165 L 32.592 33.968 C 32.592 37.097 30.051 39.637 26.922 39.637 L 6.669 39.637 C 3.54 39.637 1 37.097 1 33.968 L 1 14.165 C 1 11.036 3.54 8.496 6.669 8.496 Z" style="fill:none;stroke:#747474;stroke-width:1;stroke-linecap:square;stroke-miterlimit:2;"/><text transform="matrix(1,0,0,1,12.066,30.317)" style="font-family:'Oleo Script';font-weight:400;font-size:20px;font-style:normal;fill:#464646;stroke:none;">1</text></g><g><path d="M 6.669 46.809 L 507.552 46.809 C 510.681 46.809 513.221 49.349 513.221 52.478 L 513.221 72.281 C 513.221 75.41 510.681 77.95 507.552 77.95 L 6.669 77.95 C 3.54 77.95 1 75.41 1 72.281 L 1 52.478 C 1 49.349 3.54 46.809 6.669 46.809 Z" style="stroke:none;fill:#FFFFFF;stroke-linecap:square;stroke-miterlimit:2;"/><path d="M 6.669 46.809 L 507.552 46.809 C 510.681 46.809 513.221 49.349 513.221 52.478 L 513.221 72.281 C 513.221 75.41 510.681 77.95 507.552 77.95 L 6.669 77.95 C 3.54 77.95 1 75.41 1 72.281 L 1 52.478 C 1 49.349 3.54 46.809 6.669 46.809 Z" style="fill:none;stroke:#747474;stroke-width:1;stroke-linecap:square;stroke-miterlimit:2;"/><path d="M 6.669 46.809 L 26.922 46.809 C 30.051 46.809 32.592 49.349 32.592 52.478 L 32.592 72.281 C 32.592 75.41 30.051 77.95 26.922 77.95 L 6.669 77.95 C 3.54 77.95 1 75.41 1 72.281 L 1 52.478 C 1 49.349 3.54 46.809 6.669 46.809 Z" style="stroke:none;fill:#E8E8E8;stroke-linecap:square;stroke-miterlimit:2;"/><path d="M 6.669 46.809 L 26.922 46.809 C 30.051 46.809 32.592 49.349 32.592 52.478 L 32.592 72.281 C 32.592 75.41 30.051 77.95 26.922 77.95 L 6.669 77.95 C 3.54 77.95 1 75.41 1 72.281 L 1 52.478 C 1 49.349 3.54 46.809 6.669 46.809 Z" style="fill:none;stroke:#747474;stroke-width:1;stroke-linecap:square;stroke-miterlimit:2;"/><text transform="matrix(1,0,0,1,10.846,68.63)" style="font-family:'Oleo Script';font-weight:400;font-size:20px;font-style:normal;fill:#464646;stroke:none;">2</text></g><g><path d="M 6.669 85.122 L 507.552 85.122 C 510.681 85.122 513.221 87.662 513.221 90.791 L 513.221 110.594 C 513.221 113.723 510.681 116.263 507.552 116.263 L 6.669 116.263 C 3.54 116.263 1 113.723 1 110.594 L 1 90.791 C 1 87.662 3.54 85.122 6.669 85.122 Z" style="stroke:none;fill:#FFFFFF;stroke-linecap:square;stroke-miterlimit:2;"/><path d="M 6.669 85.122 L 507.552 85.122 C 510.681 85.122 513.221 87.662 513.221 90.791 L 513.221 110.594 C 513.221 113.723 510.681 116.263 507.552 116.263 L 6.669 116.263 C 3.54 116.263 1 113.723 1 110.594 L 1 90.791 C 1 87.662 3.54 85.122 6.669 85.122 Z" style="fill:none;stroke:#747474;stroke-width:1;stroke-linecap:square;stroke-miterlimit:2;"/><path d="M 6.669 85.122 L 26.922 85.122 C 30.051 85.122 32.592 87.662 32.592 90.791 L 32.592 110.594 C 32.592 113.723 30.051 116.263 26.922 116.263 L 6.669 116.263 C 3.54 116.263 1 113.723 1 110.594 L 1 90.791 C 1 87.662 3.54 85.122 6.669 85.122 Z" style="stroke:none;fill:#E8E8E8;stroke-linecap:square;stroke-miterlimit:2;"/><path d="M 6.669 85.122 L 26.922 85.122 C 30.051 85.122 32.592 87.662 32.592 90.791 L 32.592 110.594 C 32.592 113.723 30.051 116.263 26.922 116.263 L 6.669 116.263 C 3.54 116.263 1 113.723 1 110.594 L 1 90.791 C 1 87.662 3.54 85.122 6.669 85.122 Z" style="fill:none;stroke:#747474;stroke-width:1;stroke-linecap:square;stroke-miterlimit:2;"/><text transform="matrix(1,0,0,1,11.026,106.943)" style="font-family:'Oleo Script';font-weight:400;font-size:20px;font-style:normal;fill:#464646;stroke:none;">3</text></g><g><path d="M 6.669 123.435 L 507.552 123.435 C 510.681 123.435 513.221 125.976 513.221 129.105 L 513.221 148.907 C 513.221 152.036 510.681 154.577 507.552 154.577 L 6.669 154.577 C 3.54 154.577 1 152.036 1 148.907 L 1 129.105 C 1 125.976 3.54 123.435 6.669 123.435 Z" style="stroke:none;fill:#FFFFFF;stroke-linecap:square;stroke-miterlimit:2;"/><path d="M 6.669 123.435 L 507.552 123.435 C 510.681 123.435 513.221 125.976 513.221 129.105 L 513.221 148.907 C 513.221 152.036 510.681 154.577 507.552 154.577 L 6.669 154.577 C 3.54 154.577 1 152.036 1 148.907 L 1 129.105 C 1 125.976 3.54 123.435 6.669 123.435 Z" style="fill:none;stroke:#747474;stroke-width:1;stroke-linecap:square;stroke-miterlimit:2;"/><path d="M 6.669 123.435 L 26.922 123.435 C 30.051 123.435 32.592 125.976 32.592 129.105 L 32.592 148.907 C 32.592 152.036 30.051 154.577 26.922 154.577 L 6.669 154.577 C 3.54 154.577 1 152.036 1 148.907 L 1 129.105 C 1 125.976 3.54 123.435 6.669 123.435 Z" style="stroke:none;fill:#E8E8E8;stroke-linecap:square;stroke-miterlimit:2;"/><path d="M 6.669 123.435 L 26.922 123.435 C 30.051 123.435 32.592 125.976 32.592 129.105 L 32.592 148.907 C 32.592 152.036 30.051 154.577 26.922 154.577 L 6.669 154.577 C 3.54 154.577 1 152.036 1 148.907 L 1 129.105 C 1 125.976 3.54 123.435 6.669 123.435 Z" style="fill:none;stroke:#747474;stroke-width:1;stroke-linecap:square;stroke-miterlimit:2;"/><text transform="matrix(1,0,0,1,10.316,145.256)" style="font-family:'Oleo Script';font-weight:400;font-size:20px;font-style:normal;fill:#464646;stroke:none;">4</text></g><g><path d="M 6.669 161.748 L 507.552 161.748 C 510.681 161.748 513.221 164.289 513.221 167.418 L 513.221 187.22 C 513.221 190.349 510.681 192.89 507.552 192.89 L 6.669 192.89 C 3.54 192.89 1 190.349 1 187.22 L 1 167.418 C 1 164.289 3.54 161.748 6.669 161.748 Z" style="stroke:none;fill:#FFFFFF;stroke-linecap:square;stroke-miterlimit:2;"/><path d="M 6.669 161.748 L 507.552 161.748 C 510.681 161.748 513.221 164.289 513.221 167.418 L 513.221 187.22 C 513.221 190.349 510.681 192.89 507.552 192.89 L 6.669 192.89 C 3.54 192.89 1 190.349 1 187.22 L 1 167.418 C 1 164.289 3.54 161.748 6.669 161.748 Z" style="fill:none;stroke:#747474;stroke-width:1;stroke-linecap:square;stroke-miterlimit:2;"/><path d="M 6.669 161.748 L 26.922 161.748 C 30.051 161.748 32.592 164.289 32.592 167.418 L 32.592 187.22 C 32.592 190.349 30.051 192.89 26.922 192.89 L 6.669 192.89 C 3.54 192.89 1 190.349 1 187.22 L 1 167.418 C 1 164.289 3.54 161.748 6.669 161.748 Z" style="stroke:none;fill:#E8E8E8;stroke-linecap:square;stroke-miterlimit:2;"/><path d="M 6.669 161.748 L 26.922 161.748 C 30.051 161.748 32.592 164.289 32.592 167.418 L 32.592 187.22 C 32.592 190.349 30.051 192.89 26.922 192.89 L 6.669 192.89 C 3.54 192.89 1 190.349 1 187.22 L 1 167.418 C 1 164.289 3.54 161.748 6.669 161.748 Z" style="fill:none;stroke:#747474;stroke-width:1;stroke-linecap:square;stroke-miterlimit:2;"/><text transform="matrix(1,0,0,1,10.986,183.569)" style="font-family:'Oleo Script';font-weight:400;font-size:20px;font-style:normal;fill:#464646;stroke:none;">5</text></g><path d=" M 499.283 14.496 L 488.434 25.346 L 488.384 25.568 L 486.771 32.396 L 486.473 33.637 L 487.714 33.339 L 494.541 31.725 L 494.764 31.675 L 505.614 20.827 L 504.496 19.71 L 494.963 29.218 C 494.622 28.545 493.955 27.809 492.853 27.256 C 492.363 26.168 491.619 25.447 490.918 25.121 L 500.4 15.614 L 499.283 14.496 Z  M 489.824 26.438 C 489.932 26.466 490.063 26.505 490.197 26.562 C 490.681 26.769 491.233 27.151 491.562 28.101 L 491.661 28.424 L 491.984 28.572 C 493.027 29.032 493.414 29.578 493.598 30.013 C 493.641 30.112 493.675 30.208 493.697 30.285 L 490.544 31.03 L 489.079 29.565 L 489.824 26.438 Z " fill="rgb(139,139,139)"/><path d=" M 499.283 52.809 L 488.434 63.659 L 488.384 63.881 L 486.771 70.709 L 486.473 71.95 L 487.714 71.652 L 494.541 70.039 L 494.764 69.988 L 505.614 59.14 L 504.496 58.023 L 494.963 67.531 C 494.622 66.858 493.955 66.122 492.853 65.569 C 492.363 64.481 491.619 63.76 490.918 63.435 L 500.4 53.927 L 499.283 52.809 Z  M 489.824 64.751 C 489.932 64.779 490.063 64.818 490.197 64.875 C 490.681 65.082 491.233 65.464 491.562 66.414 L 491.661 66.737 L 491.984 66.886 C 493.027 67.345 493.414 67.891 493.598 68.326 C 493.641 68.425 493.675 68.521 493.697 68.598 L 490.544 69.343 L 489.079 67.879 L 489.824 64.751 Z " fill="rgb(139,139,139)"/><path d=" M 499.283 91.123 L 488.434 101.972 L 488.384 102.194 L 486.771 109.022 L 486.473 110.263 L 487.714 109.965 L 494.541 108.352 L 494.764 108.302 L 505.614 97.453 L 504.496 96.336 L 494.963 105.845 C 494.622 105.171 493.955 104.435 492.853 103.882 C 492.363 102.794 491.619 102.073 490.918 101.748 L 500.4 92.24 L 499.283 91.123 Z  M 489.824 103.064 C 489.932 103.092 490.063 103.132 490.197 103.188 C 490.681 103.395 491.233 103.777 491.562 104.727 L 491.661 105.05 L 491.984 105.199 C 493.027 105.658 493.414 106.204 493.598 106.639 C 493.641 106.738 493.675 106.834 493.697 106.911 L 490.544 107.657 L 489.079 106.192 L 489.824 103.064 Z " fill="rgb(139,139,139)"/><path d=" M 499.283 129.123 L 488.434 139.972 L 488.384 140.194 L 486.771 147.022 L 486.473 148.263 L 487.714 147.965 L 494.541 146.352 L 494.764 146.302 L 505.614 135.453 L 504.496 134.336 L 494.963 143.845 C 494.622 143.171 493.955 142.435 492.853 141.883 C 492.363 140.794 491.619 140.074 490.918 139.748 L 500.4 130.24 L 499.283 129.123 Z  M 489.824 141.064 C 489.932 141.092 490.063 141.132 490.197 141.188 C 490.681 141.396 491.233 141.778 491.562 142.727 L 491.661 143.05 L 491.984 143.199 C 493.027 143.658 493.414 144.205 493.598 144.639 C 493.641 144.738 493.675 144.835 493.697 144.912 L 490.544 145.657 L 489.079 144.192 L 489.824 141.064 Z " fill="rgb(139,139,139)"/><path d=" M 499.283 167.749 L 488.434 178.598 L 488.384 178.821 L 486.771 185.648 L 486.473 186.889 L 487.714 186.591 L 494.541 184.978 L 494.764 184.928 L 505.614 174.08 L 504.496 172.963 L 494.963 182.471 C 494.622 181.797 493.955 181.062 492.853 180.509 C 492.363 179.42 491.619 178.7 490.918 178.374 L 500.4 168.867 L 499.283 167.749 Z  M 489.824 179.69 C 489.932 179.718 490.063 179.758 490.197 179.814 C 490.681 180.022 491.233 180.404 491.562 181.353 L 491.661 181.676 L 491.984 181.825 C 493.027 182.284 493.414 182.831 493.598 183.265 C 493.641 183.365 493.675 183.461 493.697 183.538 L 490.544 184.283 L 489.079 182.818 L 489.824 179.69 Z " fill="rgb(139,139,139)"/></g></svg>